<svg width="111" height="24" viewBox="0 0 111 24" fill="none" xmlns="http://www.w3.org/2000/svg">
<path d="M69.5978 2.1217V5.52819H67.4746V7.76215H69.5978V15.3527C69.5978 17.9446 70.7637 18.9814 73.6968 18.9814C74.2123 18.9814 74.7032 18.9196 75.1327 18.8456V16.6363C74.7646 16.6733 74.5314 16.698 74.1264 16.698C72.8132 16.698 72.2364 16.0809 72.2364 14.6739V7.76215H75.1327V5.52819H72.2364V2.1217H69.5978Z" fill="black"/>
<path d="M82.6048 19.1665C86.5075 19.1665 88.9007 16.5376 88.9007 12.1807C88.9007 7.84855 86.4952 5.20728 82.6048 5.20728C78.7021 5.20728 76.2967 7.84855 76.2967 12.1807C76.2967 16.5376 78.6898 19.1665 82.6048 19.1665ZM82.6048 16.8091C80.3098 16.8091 79.0212 15.1182 79.0212 12.1807C79.0212 9.26792 80.3098 7.56467 82.6048 7.56467C84.8875 7.56467 86.1884 9.26792 86.1884 12.1807C86.1884 15.1059 84.8875 16.8091 82.6048 16.8091Z" fill="black"/>
<path d="M90.9482 18.9073H93.5868V10.9712C93.5868 9.08278 94.9982 7.81152 96.9986 7.81152C97.465 7.81152 98.2504 7.89792 98.4713 7.97197V5.35539C98.1891 5.28134 97.6859 5.24431 97.2932 5.24431C95.5504 5.24431 94.0655 6.20702 93.685 7.52765H93.4886V5.46647H90.9482V18.9073Z" fill="black"/>
<path d="M105.023 7.46594C106.974 7.46594 108.251 8.83594 108.312 10.9465H101.562C101.709 8.84828 103.072 7.46594 105.023 7.46594ZM108.3 15.2786C107.809 16.3277 106.717 16.9078 105.121 16.9078C103.01 16.9078 101.648 15.4144 101.562 13.057V12.9089H111V11.9832C111 7.76215 108.754 5.20728 105.035 5.20728C101.268 5.20728 98.8744 7.93495 98.8744 12.2301C98.8744 16.5252 101.218 19.1665 105.048 19.1665C108.103 19.1665 110.239 17.6854 110.84 15.2786H108.3Z" fill="black"/>
<path d="M52.2941 13.9438C52.4977 17.2443 55.2325 19.355 59.303 19.355C63.6533 19.355 66.3754 17.1419 66.3754 13.6112C66.3754 10.8352 64.8236 9.30014 61.0584 8.41746L59.0359 7.91855C56.6445 7.35568 55.6777 6.60093 55.6777 5.2833C55.6777 3.62027 57.1787 2.53291 59.4302 2.53291C61.5672 2.53291 63.0427 3.59469 63.3098 5.29609H66.0829C65.9175 2.18752 63.1954 0 59.4683 0C55.4615 0 52.7902 2.18752 52.7902 5.47519C52.7902 8.18719 54.3039 9.79905 57.6239 10.5794L59.9899 11.1551C62.4194 11.7307 63.4879 12.575 63.4879 13.9822C63.4879 15.6196 61.8089 16.8093 59.5192 16.8093C57.0642 16.8093 55.3597 15.6964 55.118 13.9438H52.2941Z" fill="black"/>
<path d="M24.9608 5.24431C23.1444 5.24431 21.5735 6.15765 20.7636 7.6881H20.5672V5.46647H18.0268V23.3752H20.6654V16.8708H20.874C21.5735 18.2902 23.0831 19.1295 24.9853 19.1295C28.3603 19.1295 30.508 16.4512 30.508 12.1807C30.508 7.91026 28.3603 5.24431 24.9608 5.24431ZM24.2122 16.7474C22.0031 16.7474 20.6163 14.9948 20.6163 12.1931C20.6163 9.379 22.0031 7.62639 24.2244 7.62639C26.4581 7.62639 27.7958 9.34197 27.7958 12.1807C27.7958 15.0318 26.4581 16.7474 24.2122 16.7474Z" fill="black"/>
<path d="M39.741 5.24431C37.9246 5.24431 36.3537 6.15765 35.5437 7.6881H35.3474V5.46647H32.8069V23.3752H35.4455V16.8708H35.6542C36.3537 18.2902 37.8632 19.1295 39.7655 19.1295C43.1405 19.1295 45.2882 16.4512 45.2882 12.1807C45.2882 7.91026 43.1405 5.24431 39.741 5.24431ZM38.9923 16.7474C36.7833 16.7474 35.3965 14.9948 35.3965 12.1931C35.3965 9.379 36.7833 7.62639 39.0046 7.62639C41.2382 7.62639 42.5759 9.34197 42.5759 12.1807C42.5759 15.0318 41.2382 16.7474 38.9923 16.7474Z" fill="black"/>
<path d="M13.2926 18.9073H16.32L9.69281 0.447737H6.62723L0 18.9073H2.92565L4.61744 14.0078H11.6136L13.2926 18.9073ZM8.01374 3.79937H8.22998L10.8885 11.6028H5.34249L8.01374 3.79937Z" fill="black"/>
</svg>
