<svg width="26" height="33" viewBox="0 0 26 33" fill="none" xmlns="http://www.w3.org/2000/svg">
<path d="M21.7158 17.0913C21.7476 14.6103 23.0724 12.2628 25.1741 10.9633C23.8483 9.05896 21.6274 7.85154 19.3169 7.77884C16.8526 7.5187 14.4635 9.26185 13.2077 9.26185C11.9276 9.26185 9.99407 7.80467 7.91201 7.84775C5.19815 7.93592 2.66814 9.48765 1.34779 11.8738C-1.49045 16.8157 0.626617 24.0786 3.34541 28.0732C4.70568 30.0293 6.29545 32.2143 8.37563 32.1368C10.4112 32.0519 11.1715 30.8314 13.6286 30.8314C16.0629 30.8314 16.7762 32.1368 18.8985 32.0875C21.0828 32.0519 22.459 30.1228 23.7716 28.1482C24.7489 26.7544 25.501 25.214 25.9999 23.584C23.433 22.4921 21.7188 19.8942 21.7158 17.0913Z" fill="black"/>
<path d="M17.7069 5.15176C18.8979 3.71394 19.4846 1.86586 19.3425 0C17.523 0.192191 15.8423 1.06674 14.6353 2.4494C13.4549 3.80032 12.8407 5.61588 12.9568 7.41043C14.777 7.42928 16.5664 6.57843 17.7069 5.15176Z" fill="black"/>
</svg>
