<svg width="102" height="10" viewBox="0 0 102 10" fill="none" xmlns="http://www.w3.org/2000/svg">
<path d="M0 0.437127V9.32128H3.18953C5.82196 9.32128 7.34633 7.68975 7.34633 4.8515C7.34633 2.05635 5.80972 0.437127 3.18953 0.437127H0ZM1.37131 1.6931H3.03648C4.86694 1.6931 5.95052 2.86288 5.95052 4.86997C5.95052 6.90784 4.88531 8.0653 3.03648 8.0653H1.37131V1.6931Z" fill="black"/>
<path d="M12.0149 9.45057C13.9617 9.45057 15.1555 8.13919 15.1555 5.96586C15.1555 3.80485 13.9556 2.48732 12.0149 2.48732C10.0681 2.48732 8.86824 3.80485 8.86824 5.96586C8.86824 8.13919 10.062 9.45057 12.0149 9.45057ZM12.0149 8.27463C10.8701 8.27463 10.2273 7.43116 10.2273 5.96586C10.2273 4.51288 10.8701 3.66325 12.0149 3.66325C13.1536 3.66325 13.8025 4.51288 13.8025 5.96586C13.8025 7.42501 13.1536 8.27463 12.0149 8.27463Z" fill="black"/>
<path d="M25.3216 2.61661H24.0053L22.8177 7.73284H22.7136L21.3423 2.61661H20.0812L18.7099 7.73284H18.6119L17.4181 2.61661H16.0836L17.9201 9.32128H19.2731L20.6444 4.38359H20.7485L22.1259 9.32128H23.4911L25.3216 2.61661Z" fill="black"/>
<path d="M26.8373 9.32128H28.1536V5.39944C28.1536 4.3528 28.7719 3.70019 29.7453 3.70019C30.7187 3.70019 31.1839 4.23582 31.1839 5.31325V9.32128H32.5001V4.98079C32.5001 3.3862 31.6798 2.48732 30.1922 2.48732C29.1882 2.48732 28.527 2.93676 28.2025 3.68172H28.1046V2.61661H26.8373V9.32128Z" fill="black"/>
<path d="M34.573 9.32128H35.8892V0H34.573V9.32128Z" fill="black"/>
<path d="M40.8394 9.45057C42.7862 9.45057 43.98 8.13919 43.98 5.96586C43.98 3.80485 42.7801 2.48732 40.8394 2.48732C38.8927 2.48732 37.6928 3.80485 37.6928 5.96586C37.6928 8.13919 38.8866 9.45057 40.8394 9.45057ZM40.8394 8.27463C39.6946 8.27463 39.0518 7.43116 39.0518 5.96586C39.0518 4.51288 39.6946 3.66325 40.8394 3.66325C41.9781 3.66325 42.6271 4.51288 42.6271 5.96586C42.6271 7.42501 41.9781 8.27463 40.8394 8.27463Z" fill="black"/>
<path d="M47.9017 8.31773C47.1854 8.31773 46.6651 7.9668 46.6651 7.36344C46.6651 6.77239 47.0814 6.4584 47.9997 6.39683L49.6281 6.29217V6.85243C49.6281 7.68359 48.8935 8.31773 47.9017 8.31773ZM47.565 9.4321C48.4404 9.4321 49.169 9.05038 49.5669 8.3793H49.6709V9.32128H50.9382V4.74068C50.9382 3.32463 49.9954 2.48732 48.3241 2.48732C46.812 2.48732 45.7345 3.22612 45.5999 4.37743H46.8732C47.0202 3.90336 47.5283 3.63247 48.2629 3.63247C49.1628 3.63247 49.6281 4.03265 49.6281 4.74068V5.31941L47.8221 5.42407C46.2365 5.52258 45.3427 6.21829 45.3427 7.42501C45.3427 8.65019 46.2794 9.4321 47.565 9.4321Z" fill="black"/>
<path d="M55.4048 9.4321C56.323 9.4321 57.1005 8.99497 57.4985 8.26232H57.6025V9.32128H58.8637V0H57.5474V3.68172H57.4495C57.0883 2.94291 56.3169 2.50579 55.4048 2.50579C53.7212 2.50579 52.6376 3.84795 52.6376 5.96586C52.6376 8.08993 53.709 9.4321 55.4048 9.4321ZM55.7782 3.69403C56.8801 3.69403 57.5719 4.57444 57.5719 5.97202C57.5719 7.37575 56.8863 8.24385 55.7782 8.24385C54.664 8.24385 53.9967 7.38807 53.9967 5.96586C53.9967 4.55597 54.6701 3.69403 55.7782 3.69403Z" fill="black"/>
<path d="M67.3989 9.45057C69.3456 9.45057 70.5394 8.13919 70.5394 5.96586C70.5394 3.80485 69.3395 2.48732 67.3989 2.48732C65.4521 2.48732 64.2522 3.80485 64.2522 5.96586C64.2522 8.13919 65.446 9.45057 67.3989 9.45057ZM67.3989 8.27463C66.2541 8.27463 65.6113 7.43116 65.6113 5.96586C65.6113 4.51288 66.2541 3.66325 67.3989 3.66325C68.5375 3.66325 69.1865 4.51288 69.1865 5.96586C69.1865 7.42501 68.5375 8.27463 67.3989 8.27463Z" fill="black"/>
<path d="M72.2817 9.32128H73.5979V5.39944C73.5979 4.3528 74.2163 3.70019 75.1896 3.70019C76.163 3.70019 76.6283 4.23582 76.6283 5.31325V9.32128H77.9445V4.98079C77.9445 3.3862 77.1242 2.48732 75.6365 2.48732C74.6325 2.48732 73.9714 2.93676 73.6469 3.68172H73.549V2.61661H72.2817V9.32128Z" fill="black"/>
<path d="M84.0065 0.948135V2.64739H82.9474V3.76176H84.0065V7.54814C84.0065 8.84105 84.588 9.35822 86.0512 9.35822C86.3083 9.35822 86.5532 9.32743 86.7674 9.29049V8.18844C86.5838 8.20691 86.4675 8.21922 86.2654 8.21922C85.6104 8.21922 85.3227 7.91139 85.3227 7.20952V3.76176H86.7674V2.64739H85.3227V0.948135H84.0065Z" fill="black"/>
<path d="M88.5342 9.32128H89.8505V5.4056C89.8505 4.38974 90.4504 3.70635 91.5279 3.70635C92.4584 3.70635 92.9543 4.24814 92.9543 5.31941V9.32128H94.2705V4.9931C94.2705 3.39851 93.3951 2.49347 91.9748 2.49347C90.9708 2.49347 90.2667 2.94291 89.9423 3.69403H89.8382V0H88.5342V9.32128Z" fill="black"/>
<path d="M99.0187 3.614C99.9921 3.614 100.629 4.29739 100.659 5.35019H97.2923C97.3657 4.30355 98.0453 3.614 99.0187 3.614ZM100.653 7.5112C100.408 8.03452 99.8635 8.32389 99.0676 8.32389C98.0147 8.32389 97.3351 7.57892 97.2923 6.40299V6.32911H102V5.86736C102 3.76176 100.88 2.48732 99.0248 2.48732C97.1454 2.48732 95.9516 3.84795 95.9516 5.99049C95.9516 8.13303 97.1209 9.45057 99.0309 9.45057C100.555 9.45057 101.62 8.71176 101.92 7.5112H100.653Z" fill="black"/>
</svg>
