<svg width="849" height="107" viewBox="0 0 849 107" fill="none" xmlns="http://www.w3.org/2000/svg">
<path d="M171.282 0.0961914V106.696H116.559V47.5495C116.559 47.5495 116.559 47.4034 116.51 47.4034H116.364C116.364 47.4034 116.315 47.4034 116.315 47.5495L102.379 106.696H66.1249C63.7372 96.8542 61.4469 87.0128 59.1567 77.2688C56.8664 67.5248 54.5762 57.732 52.1885 47.988C52.1885 47.8905 52.1397 47.8418 52.0423 47.8418C51.9448 47.8418 51.8961 47.8905 51.8961 47.988V106.696H0V0.0961914H75.7732C77.1863 5.99132 78.5507 11.8377 79.9151 17.6354C81.2308 23.4818 82.5952 29.3283 83.9596 35.1747C85.324 41.0698 86.6884 46.9162 88.0041 52.8113C88.0041 52.9087 88.0041 52.9574 88.0528 53.0061C88.0528 53.0549 88.1503 53.0549 88.199 53.0061C88.199 53.0061 88.2477 52.9087 88.2477 52.8113L99.6015 0.0961914H171.233H171.282Z" fill="white"/>
<path d="M301.387 31.0353H239.55L239.404 35.9073V43.9948H299.243V64.0187H239.55C239.55 64.0187 239.404 64.0187 239.404 64.0674V77.1244H302.215V106.649H181.807V0.0493164H301.387V30.9866V31.0353Z" fill="white"/>
<path d="M432.08 31.0353H370.097V43.9948H429.936V64.0187H370.244C370.244 64.0187 370.097 64.0187 370.097 64.0674V77.1244H432.909V106.649H312.5V0.0493164H432.08V30.9866V31.0353Z" fill="white"/>
<path d="M533.236 0.0981445C542.056 0.0981445 549.755 1.31617 556.334 3.70345C562.912 6.13946 568.37 9.40367 572.707 13.4962C576.995 17.6374 580.26 22.2658 582.452 27.4789C584.645 32.6919 585.717 38.0998 585.717 43.7026C585.717 49.6952 584.597 55.3467 582.355 60.7059C580.113 66.0651 576.8 70.8397 572.414 74.9809C568.029 79.1708 562.522 82.435 555.993 84.871C549.463 87.307 541.861 88.4763 533.236 88.4763H502.684C502.684 88.4763 502.537 88.6224 502.489 88.6224C502.44 88.6224 502.44 88.6712 502.44 88.7687V106.698H443.283V0.0981445H533.285H533.236ZM515.743 57.6853C518.569 57.6853 520.957 57.1981 522.906 56.1749C524.855 55.2005 526.317 53.8851 527.243 52.326C528.169 50.767 528.656 49.1592 528.656 47.5515C528.656 45.8463 528.169 44.2385 527.243 42.7769C526.317 41.3153 524.855 40.0973 522.955 39.1716C521.054 38.2459 518.618 37.7588 515.694 37.7588H502.635C502.635 37.7588 502.489 37.7588 502.44 37.8075C502.391 37.8562 502.391 37.9049 502.391 38.0023V57.4903C502.391 57.4903 502.586 57.5391 502.684 57.6366H515.743V57.6853Z" fill="white"/>
<path d="M784.435 0.0973865H849C843.786 9.59779 838.573 19.0495 833.359 28.5012C828.145 38.0016 822.931 47.4533 817.668 56.905C812.405 66.4054 807.191 75.8571 801.977 85.3087V106.648H742.967V85.1626C739.653 79.4623 736.34 73.8108 733.075 68.1106C729.81 62.4103 726.545 56.7588 723.28 51.0586C720.016 45.3583 716.702 39.7068 713.388 34.0553C710.075 28.4037 706.761 22.7523 703.496 17.052C700.232 11.3518 696.918 5.70024 693.604 0H761.825C763.043 4.53096 764.261 9.11059 765.431 13.6415C766.6 18.1725 767.818 22.7522 769.037 27.2832C770.255 31.8141 771.473 36.3938 772.594 40.9248L772.74 41.0709L772.886 40.9248C773.812 37.5144 774.787 34.104 775.712 30.6936C776.638 27.2832 777.613 23.8728 778.636 20.4624C779.66 17.052 780.585 13.6416 781.56 10.2312C782.534 6.82076 783.46 3.4104 784.386 0L784.435 0.0973865Z" fill="white"/>
<path d="M721.379 68.2074C720.746 67.1356 720.112 66.015 719.479 64.9432H653.792C653.792 64.9432 653.646 64.9431 653.597 64.8944C653.549 64.8944 653.549 64.797 653.549 64.6995V0.145508H594.538V106.745H731.271V85.2594C727.957 79.5592 724.644 73.9076 721.379 68.2074Z" fill="white"/>
</svg>
