<svg width="58" height="10" viewBox="0 0 58 10" fill="none" xmlns="http://www.w3.org/2000/svg">
<path d="M9.12569 5.13C9.12569 6.37758 8.75672 7.37059 8.01727 8.11199C7.17813 8.99334 6.08309 9.43401 4.7381 9.43401C3.44964 9.43401 2.35311 8.98738 1.45297 8.09412C0.551351 7.19938 0.100539 6.09174 0.100539 4.76972C0.100539 3.44621 0.551351 2.33857 1.45297 1.44531C2.35311 0.550568 3.44964 0.103941 4.7381 0.103941C5.37786 0.103941 5.98936 0.228996 6.56961 0.477619C7.15135 0.727731 7.61704 1.05972 7.96519 1.47509L7.18111 2.26116C6.59044 1.55399 5.7766 1.20116 4.7366 1.20116C3.7963 1.20116 2.98394 1.53166 2.29806 2.19267C1.61217 2.85368 1.26997 3.7127 1.26997 4.76823C1.26997 5.82376 1.61217 6.68278 2.29806 7.34379C2.98394 8.0048 3.7963 8.3353 4.7366 8.3353C5.73345 8.3353 6.56515 8.00331 7.23021 7.33783C7.66168 6.9046 7.91163 6.30165 7.97858 5.52899H4.7366V4.45559H9.06172C9.10635 4.68933 9.12569 4.91413 9.12569 5.13Z" fill="black"/>
<path d="M15.9847 1.39925H11.92V4.23087H15.586V5.30427H11.92V8.13589H15.9847V9.2346H10.7729V0.302029H15.9847V1.39925Z" fill="black"/>
<path d="M20.8215 9.2346H19.6744V1.39925H17.1808V0.302029H23.3151V1.39925H20.8215V9.2346Z" fill="black"/>
<path d="M27.7532 9.2346V0.302029H28.9003V9.2346H27.7532Z" fill="black"/>
<path d="M33.9874 9.2346H32.8403V1.39925H30.3467V0.302029H36.481V1.39925H33.9874V9.2346Z" fill="black"/>
<path d="M48.0932 8.08079C47.2154 8.98298 46.1248 9.43408 44.82 9.43408C43.5151 9.43408 42.4246 8.98298 41.5482 8.08079C40.6704 7.17861 40.233 6.07394 40.233 4.7683C40.233 3.46266 40.6704 2.35799 41.5482 1.4558C42.4246 0.553615 43.5151 0.101032 44.82 0.101032C46.1174 0.101032 47.2065 0.555103 48.0872 1.46176C48.968 2.36841 49.4084 3.4701 49.4084 4.7683C49.4084 6.07394 48.9695 7.17861 48.0932 8.08079ZM42.3948 7.33195C43.0554 8.00189 43.8633 8.33537 44.82 8.33537C45.7766 8.33537 46.586 8.0004 47.2451 7.33195C47.9057 6.662 48.2375 5.80746 48.2375 4.7683C48.2375 3.72914 47.9057 2.87459 47.2451 2.20465C46.586 1.53471 45.7766 1.20123 44.82 1.20123C43.8633 1.20123 43.0554 1.5362 42.3948 2.20465C41.7357 2.87459 41.4039 3.72914 41.4039 4.7683C41.4039 5.80746 41.7357 6.662 42.3948 7.33195Z" fill="black"/>
<path d="M51.0183 9.2346V0.302029H52.4139L56.7524 7.25008H56.8015L56.7524 5.52907V0.302029H57.8995V9.2346H56.7018L52.1624 1.9486H52.1133L52.1624 3.66961V9.2346H51.0183Z" fill="black"/>
<path d="M9.12569 5.13C9.12569 6.37758 8.75672 7.37059 8.01727 8.11199C7.17813 8.99334 6.08309 9.43401 4.7381 9.43401C3.44964 9.43401 2.35311 8.98738 1.45297 8.09412C0.551351 7.19938 0.100539 6.09174 0.100539 4.76972C0.100539 3.44621 0.551351 2.33857 1.45297 1.44531C2.35311 0.550568 3.44964 0.103941 4.7381 0.103941C5.37786 0.103941 5.98936 0.228996 6.56961 0.477619C7.15135 0.727731 7.61704 1.05972 7.96519 1.47509L7.18111 2.26116C6.59044 1.55399 5.7766 1.20116 4.7366 1.20116C3.7963 1.20116 2.98394 1.53166 2.29806 2.19267C1.61217 2.85368 1.26997 3.7127 1.26997 4.76823C1.26997 5.82376 1.61217 6.68278 2.29806 7.34379C2.98394 8.0048 3.7963 8.3353 4.7366 8.3353C5.73345 8.3353 6.56515 8.00331 7.23021 7.33783C7.66168 6.9046 7.91163 6.30165 7.97858 5.52899H4.7366V4.45559H9.06172C9.10635 4.68933 9.12569 4.91413 9.12569 5.13Z" stroke="black" stroke-width="0.2" stroke-miterlimit="10"/>
<path d="M15.9847 1.39925H11.92V4.23087H15.586V5.30427H11.92V8.13589H15.9847V9.2346H10.7729V0.302029H15.9847V1.39925Z" stroke="black" stroke-width="0.2" stroke-miterlimit="10"/>
<path d="M20.8215 9.2346H19.6744V1.39925H17.1808V0.302029H23.3151V1.39925H20.8215V9.2346Z" stroke="black" stroke-width="0.2" stroke-miterlimit="10"/>
<path d="M27.7532 9.2346V0.302029H28.9003V9.2346H27.7532Z" stroke="black" stroke-width="0.2" stroke-miterlimit="10"/>
<path d="M33.9874 9.2346H32.8403V1.39925H30.3467V0.302029H36.481V1.39925H33.9874V9.2346Z" stroke="black" stroke-width="0.2" stroke-miterlimit="10"/>
<path d="M48.0932 8.08079C47.2154 8.98298 46.1248 9.43408 44.82 9.43408C43.5151 9.43408 42.4246 8.98298 41.5482 8.08079C40.6704 7.17861 40.233 6.07394 40.233 4.7683C40.233 3.46266 40.6704 2.35799 41.5482 1.4558C42.4246 0.553615 43.5151 0.101032 44.82 0.101032C46.1174 0.101032 47.2065 0.555103 48.0872 1.46176C48.968 2.36841 49.4084 3.4701 49.4084 4.7683C49.4084 6.07394 48.9695 7.17861 48.0932 8.08079ZM42.3948 7.33195C43.0554 8.00189 43.8633 8.33537 44.82 8.33537C45.7766 8.33537 46.586 8.0004 47.2451 7.33195C47.9057 6.662 48.2375 5.80746 48.2375 4.7683C48.2375 3.72914 47.9057 2.87459 47.2451 2.20465C46.586 1.53471 45.7766 1.20123 44.82 1.20123C43.8633 1.20123 43.0554 1.5362 42.3948 2.20465C41.7357 2.87459 41.4039 3.72914 41.4039 4.7683C41.4039 5.80746 41.7357 6.662 42.3948 7.33195Z" stroke="black" stroke-width="0.2" stroke-miterlimit="10"/>
<path d="M51.0183 9.2346V0.302029H52.4139L56.7524 7.25008H56.8015L56.7524 5.52907V0.302029H57.8995V9.2346H56.7018L52.1624 1.9486H52.1133L52.1624 3.66961V9.2346H51.0183Z" stroke="black" stroke-width="0.2" stroke-miterlimit="10"/>
</svg>
