<svg width="125" height="26" viewBox="0 0 125 26" fill="none" xmlns="http://www.w3.org/2000/svg">
<path d="M39.9495 6.9403C36.4815 6.9403 33.6549 9.5798 33.6549 13.2152C33.6549 16.8285 36.4815 19.4901 39.9495 19.4901C43.4189 19.4901 46.2455 16.8285 46.2455 13.2152C46.244 9.5798 43.4175 6.9403 39.9495 6.9403ZM39.9495 17.0203C38.0489 17.0203 36.4107 15.4519 36.4107 13.2167C36.4107 10.9578 38.0504 9.41307 39.9495 9.41307C41.8501 9.41307 43.4882 10.9578 43.4882 13.2167C43.4882 15.4504 41.8501 17.0203 39.9495 17.0203ZM26.2162 6.9403C22.7482 6.9403 19.9217 9.5798 19.9217 13.2152C19.9217 16.8285 22.7482 19.4901 26.2162 19.4901C29.6856 19.4901 32.5122 16.8285 32.5122 13.2152C32.5122 9.5798 29.6856 6.9403 26.2162 6.9403ZM26.2162 17.0203C24.3156 17.0203 22.6775 15.4519 22.6775 13.2167C22.6775 10.9578 24.3171 9.41307 26.2162 9.41307C28.1168 9.41307 29.755 10.9578 29.755 13.2167C29.7564 15.4504 28.1168 17.0203 26.2162 17.0203ZM9.88195 8.86717V11.5288H16.2487C16.0585 13.0263 15.5602 14.1196 14.7993 14.8794C13.8734 15.806 12.4239 16.8285 9.88195 16.8285C5.96279 16.8285 2.89882 13.6667 2.89882 9.74504C2.89882 5.82342 5.96279 2.66163 9.88195 2.66163C11.9963 2.66163 13.5401 3.49375 14.6799 4.56342L16.5569 2.68524C14.9645 1.16409 12.8515 1.30575e-06 9.88195 1.30575e-06C4.51337 1.30575e-06 -2.69985e-07 4.3731 -2.69985e-07 9.74504C-2.69985e-07 15.117 4.51337 19.4901 9.88195 19.4901C12.7793 19.4901 14.9659 18.5384 16.6749 16.7562C18.4324 14.9975 18.9795 12.5247 18.9795 10.5285C18.9795 9.91176 18.9323 9.34078 18.8364 8.8657H9.88195V8.86717ZM76.6876 10.9342C76.1656 9.53258 74.5732 6.9403 71.319 6.9403C68.0884 6.9403 65.4034 9.4839 65.4034 13.2152C65.4034 16.7326 68.0648 19.4901 71.6272 19.4901C74.5009 19.4901 76.1641 17.7314 76.8542 16.7089L74.7162 15.2822C74.004 16.3283 73.0294 17.0173 71.6272 17.0173C70.2264 17.0173 69.2282 16.3755 68.5868 15.1155L76.9721 11.6454L76.6876 10.9342ZM68.1356 13.0263C68.0648 10.6008 70.0126 9.36586 71.4148 9.36586C72.5074 9.36586 73.4334 9.91324 73.743 10.6967L68.1356 13.0263ZM61.3191 19.1109H64.0734V0.666883H61.3191V19.1109ZM56.8042 8.34341H56.7099C56.0921 7.6057 54.9036 6.9403 53.4085 6.9403C50.2723 6.9403 47.3986 9.69783 47.3986 13.2403C47.3986 16.7576 50.2723 19.4916 53.4085 19.4916C54.9051 19.4916 56.0921 18.8261 56.7099 18.0663H56.8042V18.9693C56.8042 21.3697 55.5214 22.6533 53.4557 22.6533C51.7689 22.6533 50.7235 21.442 50.2959 20.4196L47.8969 21.4184C48.5855 23.0812 50.4139 25.1261 53.4557 25.1261C56.6863 25.1261 59.4185 23.2243 59.4185 18.5886V7.32242H56.8057V8.34341H56.8042ZM53.6459 17.0203C51.7453 17.0203 50.1543 15.4268 50.1543 13.2403C50.1543 11.0286 51.7453 9.41307 53.6459 9.41307C55.5214 9.41307 56.9944 11.0286 56.9944 13.2403C56.9944 15.4268 55.5214 17.0203 53.6459 17.0203ZM89.5951 0.666883H83.0028V19.1109H85.7527V12.1234H89.5937C92.6429 12.1234 95.642 9.91471 95.642 6.39587C95.642 2.87704 92.6444 0.666883 89.5951 0.666883ZM89.6659 9.55619H85.7527V3.23408H89.6659C91.7228 3.23408 92.8906 4.93818 92.8906 6.39587C92.8906 7.82406 91.7228 9.55619 89.6659 9.55619ZM106.67 6.90784C104.678 6.90784 102.615 7.78571 101.761 9.73176L104.203 10.7513C104.725 9.73176 105.698 9.39832 106.717 9.39832C108.14 9.39832 109.586 10.2526 109.61 11.7708V11.9611C109.111 11.6763 108.044 11.25 106.74 11.25C104.108 11.25 101.428 12.6973 101.428 15.4017C101.428 17.8701 103.586 19.4591 106.005 19.4591C107.854 19.4591 108.874 18.6284 109.514 17.6547H109.608V19.0784H112.265V12.0068C112.267 8.73439 109.822 6.90784 106.67 6.90784ZM106.336 17.0158C105.437 17.0158 104.179 16.5644 104.179 15.449C104.179 14.0252 105.745 13.4793 107.097 13.4793C108.305 13.4793 108.875 13.7404 109.61 14.096C109.396 15.806 107.926 17.0158 106.336 17.0158ZM121.941 7.31062L118.787 15.3073H118.692L115.419 7.31062H112.455L117.364 18.4868L114.565 24.7042H117.435L125 7.31062H121.941ZM97.1607 19.1109H99.9106V0.666883H97.1607V19.1109Z" fill="black"/>
</svg>
