<svg width="24" height="24" viewBox="0 0 24 24" fill="none" xmlns="http://www.w3.org/2000/svg">
<path d="M19.612 5.95872C19.1722 5.49626 18.65 5.12941 18.0752 4.87912C17.5005 4.62883 16.8844 4.5 16.2623 4.5C15.6401 4.5 15.0241 4.62883 14.4493 4.87912C13.8746 5.12941 13.3524 5.49626 12.9126 5.95872L11.9998 6.91803L11.087 5.95872C10.1986 5.02503 8.99364 4.50048 7.73725 4.50048C6.48085 4.50048 5.27591 5.02503 4.38751 5.95872C3.4991 6.89241 3 8.15877 3 9.47921C3 10.7997 3.4991 12.066 4.38751 12.9997L5.30029 13.959L11.9998 21L18.6992 13.959L19.612 12.9997C20.0521 12.5375 20.4011 11.9886 20.6393 11.3846C20.8774 10.7805 21 10.1331 21 9.47921C21 8.82535 20.8774 8.1779 20.6393 7.57384C20.4011 6.96978 20.0521 6.42096 19.612 5.95872Z" stroke="white" stroke-width="2" stroke-linecap="round"/>
</svg>
