<svg width="35" height="38" viewBox="0 0 35 38" fill="none" xmlns="http://www.w3.org/2000/svg">
<path d="M24.869 25.497L3.75227 37.505C2.70586 38.0988 1.75734 38.139 1.07599 37.7281L19.0831 19.7072L24.869 25.497ZM18.3749 18.999L0.384421 37.0032C0.139591 36.5729 0 36.0129 0 35.3374V2.66258C4.18891e-06 1.98807 0.139517 1.42743 0.384421 0.996757L18.3749 18.999ZM32.5457 16.8686C34.608 18.0417 34.6082 19.9609 32.5457 21.1353L25.7729 24.9845L19.7904 18.998L25.7689 13.0146L32.5457 16.8686ZM1.07501 0.270953C1.75635 -0.140077 2.70604 -0.0979939 3.75227 0.496911L24.8661 12.502L19.0831 18.2898L1.07501 0.270953Z" fill="black"/>
</svg>
